<?xml version="1.0" standalone="no"?>
<!DOCTYPE svg PUBLIC "-//W3C//DTD SVG 20010904//EN"
 "http://www.w3.org/TR/2001/REC-SVG-20010904/DTD/svg10.dtd">
<svg version="1.0" xmlns="http://www.w3.org/2000/svg"
 width="1500.000000pt" height="1500.000000pt" viewBox="0 0 1500.000000 1500.000000"
 preserveAspectRatio="xMidYMid meet">

<g transform="translate(0.000000,1500.000000) scale(0.100000,-0.100000)"
fill="#000000" stroke="none">
<path d="M7857 12805 c18 -8 40 -27 50 -42 17 -26 18 -108 24 -1438 6 -1570 1
-1470 74 -1601 58 -104 138 -162 276 -201 58 -16 112 -18 599 -18 529 0 536 0
615 23 133 39 226 113 278 224 44 92 57 202 57 470 0 217 2 242 19 277 12 22
34 45 53 54 31 16 20 17 -229 17 -294 0 -347 -7 -399 -52 -54 -48 -66 -80 -73
-202 -12 -186 -12 -186 -323 -186 -240 0 -255 3 -292 53 -21 28 -21 29 -26
1266 l-5 1237 -27 41 c-17 25 -44 49 -75 63 -46 23 -57 24 -338 26 -260 3
-287 2 -258 -11z"/>
<path d="M695 12796 c-139 -28 -258 -114 -310 -223 -56 -119 -55 -90 -55
-1405 0 -836 3 -1232 11 -1277 15 -90 69 -199 123 -251 63 -60 114 -88 202
-110 72 -19 112 -20 608 -20 581 1 594 2 712 60 71 35 140 105 173 175 48 102
53 144 60 470 7 344 7 345 73 378 32 17 20 17 -267 15 -323 -3 -330 -4 -382
-60 -35 -38 -45 -76 -50 -208 -9 -210 -9 -210 -325 -210 -321 0 -322 1 -316
284 3 163 4 174 31 228 64 130 216 224 547 338 151 51 186 68 270 131 126 93
240 238 325 413 87 180 90 193 90 551 0 332 -4 370 -51 470 -54 113 -154 195
-294 241 -50 16 -105 18 -585 20 -384 2 -546 -1 -590 -10z m841 -622 c47 -32
54 -60 54 -232 0 -156 0 -159 -28 -203 -36 -57 -124 -136 -229 -205 -75 -49
-360 -204 -376 -204 -4 0 -7 169 -7 375 0 408 2 421 55 463 27 21 37 22 267
22 205 0 242 -2 264 -16z"/>
<path d="M3205 12800 c-186 -20 -324 -107 -382 -240 -51 -118 -47 -31 -50
-1365 -4 -1306 -3 -1323 41 -1426 24 -56 90 -139 142 -175 27 -19 78 -44 114
-57 63 -21 78 -22 605 -25 363 -2 561 1 605 8 88 15 199 71 251 127 44 48 88
136 109 218 8 32 15 159 19 355 7 338 7 340 73 373 32 17 20 17 -267 15 -261
-3 -304 -5 -331 -20 -78 -43 -104 -111 -104 -276 0 -78 -4 -103 -20 -129 -30
-49 -65 -55 -321 -51 -252 3 -255 4 -285 75 -21 48 -21 1848 0 1896 30 71 32
72 295 75 320 5 331 -1 331 -185 1 -119 13 -177 47 -221 47 -63 66 -66 388
-70 l290 -3 -30 20 c-61 42 -65 61 -65 321 0 288 -11 397 -47 492 -51 131
-165 224 -319 259 -60 14 -971 21 -1089 9z"/>
<path d="M5600 12794 c-135 -29 -249 -111 -302 -220 -54 -109 -53 -70 -53
-1424 l0 -1255 23 -75 c51 -162 162 -263 331 -299 74 -16 1306 -16 1381 0 179
37 295 147 340 323 20 77 20 108 20 1310 0 1337 1 1308 -56 1423 -55 113 -178
197 -325 222 -104 17 -1274 14 -1359 -5z m1065 -626 c57 -45 55 -10 55 -995 0
-570 -4 -921 -10 -944 -6 -19 -22 -46 -36 -60 l-26 -24 -338 -3 c-371 -3 -391
-1 -427 54 -17 27 -18 76 -21 934 -2 498 0 925 3 949 5 32 16 54 40 78 l33 33
350 0 c343 0 350 0 377 -22z"/>
<path d="M10810 12794 c-94 -20 -184 -69 -237 -128 -52 -58 -74 -99 -99 -181
-17 -56 -18 -140 -21 -1284 -3 -1090 -2 -1234 12 -1310 36 -188 124 -296 290
-352 l70 -24 570 0 570 0 70 24 c164 56 256 166 291 349 10 52 14 153 14 340
0 299 3 315 70 360 l35 23 -295 -3 c-282 -3 -297 -4 -336 -25 -72 -39 -87 -75
-94 -234 -10 -218 -11 -219 -330 -219 -319 0 -315 -3 -315 270 0 160 2 179 23
224 67 147 228 249 572 361 166 54 263 116 374 237 83 90 153 194 211 313 75
153 78 172 83 509 2 196 0 321 -8 364 -32 187 -165 333 -350 383 -71 19 -1084
22 -1170 3z m865 -637 c41 -41 48 -82 44 -250 -4 -115 -6 -126 -31 -165 -39
-59 -110 -124 -208 -191 -104 -72 -387 -224 -400 -216 -12 8 -13 677 -1 749 6
37 16 57 40 78 l31 28 246 0 246 0 33 -33z"/>
<path d="M219 9062 c19 -10 43 -34 53 -53 17 -32 18 -102 18 -1584 0 -1456 -1
-1552 -18 -1584 -9 -19 -33 -43 -52 -53 -34 -18 -18 -18 722 -18 833 0 860 2
986 61 74 36 156 114 195 186 58 108 57 78 57 1410 0 854 -3 1238 -11 1275
-14 68 -59 162 -100 212 -43 51 -137 111 -218 138 -66 23 -70 23 -866 26 -784
3 -799 2 -766 -16z m1280 -618 c59 -35 56 23 59 -1001 3 -1040 5 -993 -60
-1033 -30 -18 -50 -20 -256 -20 -183 0 -230 3 -257 16 -68 32 -65 -20 -65
1024 0 1029 -3 982 58 1014 42 23 482 23 521 0z"/>
<path d="M3199 9070 c-229 -35 -358 -169 -389 -401 -8 -59 -10 -448 -8 -1294
4 -1129 5 -1214 22 -1270 50 -167 154 -266 328 -312 52 -13 139 -17 512 -20
608 -6 715 6 843 93 59 40 88 76 126 151 45 88 49 124 56 455 6 299 7 318 27
345 11 15 36 36 55 46 33 17 27 18 -266 15 -287 -3 -302 -4 -340 -25 -22 -12
-51 -38 -64 -58 -22 -33 -26 -51 -31 -173 -7 -149 -14 -173 -63 -202 -29 -18
-52 -20 -255 -20 -332 0 -325 -6 -320 283 3 188 4 193 30 238 72 123 246 228
548 330 176 60 253 106 362 214 127 126 257 347 297 504 19 77 21 112 21 380
0 227 -4 311 -15 359 -41 173 -141 282 -315 344 -64 22 -70 23 -585 24 -286 1
-545 -2 -576 -6z m826 -643 c40 -40 49 -93 43 -259 -3 -85 -8 -122 -22 -148
-50 -92 -223 -222 -467 -349 -75 -39 -139 -71 -143 -71 -4 0 -5 180 -4 401 l3
401 33 29 32 29 246 0 246 0 33 -33z"/>
<path d="M5635 9069 c-186 -28 -306 -121 -367 -284 -22 -59 -22 -72 -26 -537
-2 -296 1 -499 7 -533 24 -131 125 -260 256 -327 40 -20 199 -75 370 -127 328
-101 397 -128 481 -193 119 -93 144 -163 144 -405 0 -267 5 -263 -317 -263
-187 0 -223 2 -253 18 -54 27 -70 69 -70 187 0 124 -13 171 -57 212 -59 56
-104 63 -402 63 l-266 0 32 -20 c67 -41 67 -40 74 -395 7 -366 13 -405 92
-512 52 -69 103 -107 191 -139 108 -39 238 -46 736 -41 377 4 466 7 518 21
172 44 274 141 323 306 21 71 23 96 27 505 4 493 0 551 -55 663 -40 81 -125
168 -210 215 -27 14 -193 69 -369 122 -175 53 -346 110 -379 126 -123 60 -209
147 -237 242 -9 27 -13 106 -13 223 0 273 -11 264 315 264 315 0 314 1 322
-206 6 -142 21 -184 83 -226 56 -39 136 -48 420 -47 208 1 236 2 210 14 -16 7
-41 25 -55 40 l-25 27 -6 311 c-7 329 -13 376 -60 470 -52 104 -128 165 -259
209 -63 22 -78 22 -590 24 -289 1 -552 -2 -585 -7z"/>
<path d="M705 5343 c-209 -31 -328 -126 -393 -312 -24 -70 -31 -972 -7 -1063
24 -94 54 -147 120 -213 91 -91 146 -118 401 -196 292 -89 399 -124 449 -144
72 -30 160 -93 196 -142 73 -97 74 -98 77 -313 2 -120 -1 -206 -7 -222 -6 -16
-25 -37 -43 -48 -30 -18 -51 -20 -263 -20 -246 0 -262 3 -298 52 -17 22 -21
49 -26 160 -8 151 -19 183 -80 223 -55 37 -127 45 -401 45 l-245 0 32 -20 c67
-41 67 -40 74 -395 4 -209 11 -334 19 -359 54 -175 152 -269 326 -313 62 -16
124 -18 594 -18 569 0 592 2 705 55 108 51 176 134 221 270 16 49 18 104 22
508 2 271 -1 479 -7 518 -19 124 -82 231 -181 305 -85 64 -127 81 -405 163
-436 130 -471 144 -562 233 -63 61 -88 112 -104 213 -14 92 -8 326 10 358 7
13 27 32 44 42 29 18 52 20 255 20 315 0 316 0 325 -206 7 -162 30 -210 122
-251 35 -15 80 -18 330 -21 284 -3 289 -3 256 15 -19 10 -44 31 -55 46 -20 27
-21 46 -27 340 -6 328 -12 375 -59 468 -47 92 -144 167 -258 203 -64 19 -94
20 -597 22 -291 1 -543 0 -560 -3z"/>
<path d="M3165 5339 c-221 -33 -350 -154 -391 -365 -10 -54 -14 -152 -14 -342
0 -298 -3 -315 -69 -359 l-34 -23 251 0 c275 0 327 7 397 51 67 42 87 93 93
234 8 193 11 195 314 195 240 0 255 -3 292 -53 20 -27 21 -41 21 -215 0 -175
-1 -190 -24 -239 -29 -65 -134 -167 -211 -205 -30 -15 -204 -79 -387 -141
-195 -67 -355 -128 -389 -148 -128 -76 -218 -198 -244 -334 -18 -94 -8 -954
12 -1020 49 -161 133 -250 289 -307 l64 -23 825 -2 c820 -3 825 -3 783 16 -26
12 -49 32 -60 53 -17 31 -18 105 -23 1458 l-5 1425 -22 57 c-41 107 -116 193
-206 237 -112 54 -113 54 -677 57 -289 1 -552 -2 -585 -7z m865 -2199 c0 -384
-2 -403 -50 -445 -20 -19 -39 -20 -256 -23 -331 -4 -324 -10 -324 258 0 160 1
174 24 218 43 84 155 172 313 244 84 38 263 107 281 108 9 0 12 -78 12 -360z"/>
<path d="M5171 5329 c75 -44 69 87 69 -1635 0 -1700 4 -1594 -62 -1634 l-33
-20 763 0 c850 0 858 1 983 66 77 41 124 86 173 168 64 106 67 142 64 672 l-3
470 -38 76 c-28 58 -54 92 -106 140 l-68 63 68 63 c52 48 78 82 106 140 l38
76 3 472 c2 396 0 483 -12 538 -40 170 -142 277 -325 338 -66 22 -69 22 -861
25 l-795 3 36 -21z m1289 -624 c46 -41 50 -69 50 -330 0 -368 16 -350 -321
-350 -337 0 -319 -20 -319 348 0 377 -18 358 331 355 221 -3 238 -4 259 -23z
m-25 -1349 c67 -28 70 -41 73 -325 5 -386 18 -371 -317 -371 -247 0 -278 6
-306 60 -14 26 -15 68 -13 304 4 365 -14 345 316 346 162 0 221 -3 247 -14z"/>
<path d="M7662 5334 c15 -8 36 -29 45 -47 17 -30 18 -121 23 -1457 4 -1153 8
-1433 19 -1465 55 -164 157 -261 317 -302 62 -16 125 -18 604 -18 494 0 541 1
614 19 132 33 237 117 285 228 41 96 44 120 50 425 6 284 7 303 27 330 11 15
36 36 55 46 33 17 28 18 -256 15 -270 -3 -293 -4 -335 -24 -88 -40 -120 -109
-120 -255 0 -82 -17 -122 -61 -144 -25 -14 -67 -16 -269 -13 -237 3 -239 3
-264 27 -14 14 -30 41 -36 60 -6 23 -10 474 -10 1241 l0 1206 -22 44 c-18 35
-35 51 -77 73 l-55 27 -280 0 c-254 -1 -278 -2 -254 -16z"/>
<path d="M10636 5340 c-167 -30 -280 -108 -341 -236 -56 -118 -56 -123 -52
-1445 2 -952 6 -1225 16 -1264 39 -151 131 -261 260 -308 116 -43 211 -49 736
-44 417 3 488 6 539 21 168 49 257 133 309 289 18 55 21 95 26 377 7 353 9
362 79 399 l37 20 -267 1 c-290 0 -351 -7 -399 -47 -53 -45 -63 -76 -69 -220
-4 -113 -8 -136 -26 -160 -37 -50 -52 -53 -297 -53 -325 0 -317 -7 -317 263 0
204 9 242 77 318 89 98 230 173 492 263 152 52 206 78 288 141 159 119 333
384 384 583 19 75 20 105 17 409 -4 370 -7 385 -83 498 -50 74 -149 143 -250
176 -69 22 -80 23 -590 25 -286 1 -542 -1 -569 -6z m812 -630 c52 -32 62 -70
62 -227 0 -115 -4 -145 -20 -181 -44 -97 -212 -225 -472 -361 -74 -39 -138
-71 -141 -71 -4 0 -7 173 -7 385 0 426 0 428 62 458 27 14 71 17 258 17 208 0
227 -2 258 -20z"/>
<path d="M13045 5335 c-142 -29 -251 -107 -308 -218 -53 -105 -57 -150 -57
-647 0 -278 5 -472 11 -500 28 -123 119 -238 243 -309 33 -20 177 -70 361
-126 421 -131 460 -148 554 -250 78 -85 86 -113 89 -332 5 -291 14 -283 -315
-283 -245 0 -260 3 -297 53 -17 23 -21 47 -26 160 -5 123 -7 137 -32 174 -17
26 -45 49 -75 64 -46 23 -57 24 -333 27 l-285 4 35 -24 c63 -43 64 -50 71
-398 5 -286 7 -321 27 -380 51 -155 150 -244 319 -288 60 -15 129 -17 593 -17
570 0 592 2 705 56 107 50 180 140 218 268 19 61 21 101 25 500 4 489 -1 558
-50 663 -36 79 -129 175 -216 221 -29 16 -202 74 -385 129 -189 56 -358 113
-392 131 -85 45 -167 131 -195 203 -20 51 -24 83 -28 229 -5 194 3 230 60 265
30 18 50 20 256 20 247 0 273 -5 305 -59 13 -22 17 -52 17 -120 0 -163 27
-227 114 -274 39 -21 55 -22 336 -25 289 -3 294 -3 260 15 -19 10 -44 33 -56
51 -21 31 -22 45 -27 340 -5 329 -9 359 -62 468 -44 89 -143 164 -268 202 -75
22 -1086 28 -1192 7z"/>
</g>
</svg>
